<svg xmlns="http://www.w3.org/2000/svg" viewBox="0 0 546.7 28.4"><defs><style>.cls-1{fill:#f77811;}.cls-1,.cls-2{fill-rule:evenodd;}.cls-2,.cls-3{fill:#fff;}</style></defs><g id="Layer_2" data-name="Layer 2"><g id="Layer_1-2" data-name="Layer 1"><path class="cls-1" d="M21.8,16.7C18.9,21,11.2,25.9,8.9,26.6a6.62,6.62,0,0,1-7.5-1.8A12.62,12.62,0,0,1,0,22.9c-.1.1,8.2-3.5,11.2-8.2,3.2-4,3.5-11.9,0-13.4A23.84,23.84,0,0,1,17,5.1a39.84,39.84,0,0,1,4.2,4.1,5.87,5.87,0,0,1,.6,7.5Z"/><path class="cls-2" d="M12.7,12.4c1.8-4.2,1.5-9.9-1.4-11.1C8.6.1,5.6,3.5,5.4,3.6A16.17,16.17,0,0,0,3.6,6.4a14.09,14.09,0,0,0,1.5.7A24.5,24.5,0,0,1,12.7,12.4Z"/><path class="cls-3" d="M43.9,1.3h4.2V15.1a7.84,7.84,0,0,1-1.4,5A4.53,4.53,0,0,1,45,21.4a10.81,10.81,0,0,1-4.8.9,21.3,21.3,0,0,1-2.7-.2,8.08,8.08,0,0,1-2.2-.7,5.5,5.5,0,0,1-1.7-1.3,8,8,0,0,1-1.4-5V1.3h4.2V15.4a4.14,4.14,0,0,0,.8,2.7,4.07,4.07,0,0,0,2.8.8,4.07,4.07,0,0,0,2.8-.8c.6-.5.8-1.4.8-2.7l.3-14.1Z"/><path class="cls-3" d="M59.3,1.1H61a11.14,11.14,0,0,1,1.7.2,7.49,7.49,0,0,1,1.6.4,5,5,0,0,1,2.4,1.7,5.86,5.86,0,0,1,1,3.3,5.74,5.74,0,0,1-.8,2.9,4.18,4.18,0,0,1-2.3,1.8c2.3.8,3.4,2.5,3.4,5.1a5,5,0,0,1-1.9,4.3A6.36,6.36,0,0,1,63.2,22a18.63,18.63,0,0,1-3.6.3,37.63,37.63,0,0,1-7.1-.6V1.6a23.13,23.13,0,0,1,3.2-.4c1.1,0,2.4-.1,3.6-.1Zm.1,12H56.7v5.8a25.28,25.28,0,0,0,2.8.1,9.28,9.28,0,0,0,2.6-.3,1.93,1.93,0,0,0,1.2-.9,2.86,2.86,0,0,0,.4-1.7,3,3,0,0,0-.8-2.2,2.62,2.62,0,0,0-.9-.5,8.8,8.8,0,0,0-2.6-.3ZM56.7,4.6V10h2.7a8.07,8.07,0,0,0,2.5-.3,2.73,2.73,0,0,0,1.2-.9,2.86,2.86,0,0,0,.4-1.7A2.34,2.34,0,0,0,62.6,5a3.36,3.36,0,0,0-1.4-.5,10.93,10.93,0,0,0-2-.1,21.05,21.05,0,0,0-2.5.2Z"/><path class="cls-3" d="M75.8,17l-1.6,5.2H69.8L76,4a5.14,5.14,0,0,1,1.3-2.2,3,3,0,0,1,2.1-.7c1.6,0,2.8,1,3.4,2.9l6.1,18.2H84.5L82.9,17ZM79.4,5.3l-2.6,8.4H82Z"/><path class="cls-3" d="M102.9,13.8H99.5V10.5h7.4v7.8a4.64,4.64,0,0,1-.4,2.1,2.33,2.33,0,0,1-1.2,1.2,3.92,3.92,0,0,1-.9.4,3,3,0,0,1-1,.2,3.75,3.75,0,0,1-1.1.1H99.8c-2.9,0-5.1-.6-6.3-1.9A6.59,6.59,0,0,1,91.7,17a25.76,25.76,0,0,1-.5-5.3,25.32,25.32,0,0,1,.1-2.9,11.74,11.74,0,0,1,1.1-4.4,5.48,5.48,0,0,1,2.7-2.5,12.42,12.42,0,0,1,4.7-.8,34.77,34.77,0,0,1,6.7.6L106.1,5a42.86,42.86,0,0,0-5.5-.4A5.33,5.33,0,0,0,96.5,6a5.52,5.52,0,0,0-1,3.2c0,.5-.1,1.3-.1,2.5a26.74,26.74,0,0,0,.2,3.6A3.62,3.62,0,0,0,97.1,18a6.32,6.32,0,0,0,3.4.8,2.83,2.83,0,0,0,2-.5c.1-.2.2-.3.3-.5a2,2,0,0,0,.1-.8V13.8Z"/><path class="cls-3" d="M121.8,28h-2V0h2Z"/><path class="cls-3" d="M148,1.3h2.3V15.4q0,3.45-1.5,5.1a5.26,5.26,0,0,1-2.5,1.5,12,12,0,0,1-3.5.4,19.66,19.66,0,0,1-2.6-.2,4.35,4.35,0,0,1-2-.7,4,4,0,0,1-1.6-1.3,7.42,7.42,0,0,1-1.3-4.8V1.3h2.3V15.6a4.89,4.89,0,0,0,1.2,3.6,7.27,7.27,0,0,0,8,0,4.89,4.89,0,0,0,1.2-3.6V1.3Z"/><path class="cls-3" d="M157.3,11.1v11h-2.2V10a24.37,24.37,0,0,1,.1-2.7,18.65,18.65,0,0,1,3.3-1,23.37,23.37,0,0,1,3.9-.4c2.2,0,3.8.5,4.6,1.3a5.5,5.5,0,0,1,.7.9,3.58,3.58,0,0,1,.4,1.1,7.38,7.38,0,0,1,.2,1.2c0,.4.1.9.1,1.3V22.1h-2.2V10.9a3.87,3.87,0,0,0-.5-1.8,2.43,2.43,0,0,0-1.4-1,8.8,8.8,0,0,0-2.6-.3,19.53,19.53,0,0,0-2.3.2,11.34,11.34,0,0,0-2,.5,20.92,20.92,0,0,0-.1,2.6Z"/><path class="cls-3" d="M175.4,1.5a1.74,1.74,0,0,1-.3,1.2,1.33,1.33,0,0,1-1,.3c-.5,0-.9-.1-1-.3a1.74,1.74,0,0,1-.3-1.2,1.74,1.74,0,0,1,.3-1.2,1.33,1.33,0,0,1,1-.3,1.05,1.05,0,0,1,1,.4,1.61,1.61,0,0,1,.3,1.1Zm-.3,20.7h-2.2V6.3h2.2Z"/><path class="cls-3" d="M181.4,6.2V2l2.2-.3V6.2h3.6V7.9h-3.7v10c0,.6.1,1,.1,1.4a2.18,2.18,0,0,0,.5.8,2,2,0,0,0,.8.4,4.51,4.51,0,0,0,1.3.1h.9l.2,1.7a12.77,12.77,0,0,1-1.7.2,4.24,4.24,0,0,1-3.2-1,4.24,4.24,0,0,1-1-3.2V8h-2.9V6.3l2.9-.1Z"/><path class="cls-3" d="M205.5,1.1h1.7a8.75,8.75,0,0,1,1.6.2,5.41,5.41,0,0,1,1.5.4,5,5,0,0,1,2.3,1.6,4.86,4.86,0,0,1,.9,3c0,2.7-1,4.4-3.1,5.2a4.26,4.26,0,0,1,2.4,1.7,5.94,5.94,0,0,1,1,3.8,4.41,4.41,0,0,1-1.8,4,7.82,7.82,0,0,1-2.8,1.1,17.55,17.55,0,0,1-3.5.3,48.26,48.26,0,0,1-6.8-.5V1.6a50.13,50.13,0,0,1,6.6-.5Zm.2,11.3h-4.2v7.8a32.19,32.19,0,0,0,4.3.3h1.4a7.46,7.46,0,0,0,2.4-.4,3.09,3.09,0,0,0,1.5-1.2,4.14,4.14,0,0,0,.6-2.3,3.5,3.5,0,0,0-1.3-3.1,4,4,0,0,0-2-.8,11.15,11.15,0,0,0-2.7-.3Zm-4.2-9.1v7.4h4.2a10.89,10.89,0,0,0,1.9-.1c.6-.1,1.1-.2,1.6-.3a3.46,3.46,0,0,0,1.2-.7,3.56,3.56,0,0,0,1-2.8,3.31,3.31,0,0,0-1.2-2.9,4,4,0,0,0-2-.7,5.28,5.28,0,0,0-1.2-.1h-1.4a19.1,19.1,0,0,0-4.1.2Z"/><path class="cls-3" d="M218.7,8.3l-.2-1.7a36.63,36.63,0,0,1,5.9-.6,9,9,0,0,1,3.6.6,3.35,3.35,0,0,1,1.8,1.5,5.55,5.55,0,0,1,.6,2.8v7.5a24.37,24.37,0,0,1-.1,2.7,16,16,0,0,1-6.7,1.3,8.12,8.12,0,0,1-4.7-1.1,4.28,4.28,0,0,1-1.5-3.7,5.11,5.11,0,0,1,1-3.4,4.79,4.79,0,0,1,3-1.5,62.08,62.08,0,0,1,6.8-.5v-.7a7.18,7.18,0,0,0-.2-1.7,2.59,2.59,0,0,0-.7-1.1A4,4,0,0,0,226,8a11.49,11.49,0,0,0-2.1-.2,40.43,40.43,0,0,0-5.2.5Zm1,9.3a2.93,2.93,0,0,0,.6,2.1,1.93,1.93,0,0,0,.9.5,9.82,9.82,0,0,0,2.8.4,11.41,11.41,0,0,0,4.3-.7c0-.7.1-1.5.1-2.5V13.9a56.54,56.54,0,0,0-6.1.4,3.44,3.44,0,0,0-2,1,3.34,3.34,0,0,0-.6,2.3Z"/><path class="cls-3" d="M237.3,11.1v11h-2.2V10a24.37,24.37,0,0,1,.1-2.7,18.65,18.65,0,0,1,3.3-1,23.37,23.37,0,0,1,3.9-.4c2.2,0,3.8.5,4.6,1.3a5.5,5.5,0,0,1,.7.9,3.58,3.58,0,0,1,.4,1.1,7.38,7.38,0,0,1,.2,1.2V22.1h-2.2V10.9a3,3,0,0,0-.5-1.8,2.43,2.43,0,0,0-1.4-1,8.8,8.8,0,0,0-2.6-.3,19.53,19.53,0,0,0-2.3.2,14.33,14.33,0,0,0-2,.5,22.48,22.48,0,0,1,0,2.6Z"/><path class="cls-3" d="M253.1.1h2.2V13.6l6.9-7.3h2.6l-7.5,7.8,7.9,8.2h-2.7l-7.2-7.5v7.5h-2.2V.1Z"/><path class="cls-3" d="M271,1.5a1.74,1.74,0,0,1-.3,1.2,1.33,1.33,0,0,1-1,.3c-.5,0-.9-.1-1-.3a1.74,1.74,0,0,1-.3-1.2,1.74,1.74,0,0,1,.3-1.2,1.33,1.33,0,0,1,1-.3,1.05,1.05,0,0,1,1,.4,1.61,1.61,0,0,1,.3,1.1Zm-.3,20.7h-2.2V6.3h2.2Z"/><path class="cls-3" d="M277.5,11.1v11h-2.2V10a24.37,24.37,0,0,1,.1-2.7,18.65,18.65,0,0,1,3.3-1,23.37,23.37,0,0,1,3.9-.4c2.2,0,3.8.5,4.6,1.3a5.5,5.5,0,0,1,.7.9,3.58,3.58,0,0,1,.4,1.1,7.38,7.38,0,0,1,.2,1.2V22.1h-2.2V10.9a3,3,0,0,0-.5-1.8,2.43,2.43,0,0,0-1.4-1,8.8,8.8,0,0,0-2.6-.3,19.53,19.53,0,0,0-2.3.2,14.33,14.33,0,0,0-2,.5v2.6Z"/><path class="cls-3" d="M293.7,27.7l.2-1.7a40,40,0,0,0,5.4.5,10.61,10.61,0,0,0,2.1-.2,2.73,2.73,0,0,0,1.3-.7,4.13,4.13,0,0,0,.7-1.1,7.18,7.18,0,0,0,.2-1.7V21.5a17.23,17.23,0,0,1-4.4.6,9.72,9.72,0,0,1-3.1-.4,4.64,4.64,0,0,1-2-1.3,5.32,5.32,0,0,1-1.2-2.5,20.15,20.15,0,0,1-.4-3.8,13.83,13.83,0,0,1,.4-3.8,6.61,6.61,0,0,1,1.3-2.5,4.47,4.47,0,0,1,2.2-1.3,10.38,10.38,0,0,1,3.2-.4,12.11,12.11,0,0,1,6,1.3,24.37,24.37,0,0,1,.1,2.7V23.5a4.78,4.78,0,0,1-1.1,3.4,14.63,14.63,0,0,1-1.3.9,9,9,0,0,1-3.6.6,58.67,58.67,0,0,1-6-.7Zm6.1-19.9a5.22,5.22,0,0,0-3.5,1,2.73,2.73,0,0,0-.9,1.2,10.51,10.51,0,0,0-.6,4,12.12,12.12,0,0,0,.1,2,5.15,5.15,0,0,0,.9,2.8q1.2,1.5,4.2,1.5a13.66,13.66,0,0,0,1.9-.2,7.76,7.76,0,0,0,1.8-.5V11a20.9,20.9,0,0,0-.1-2.5,7.76,7.76,0,0,0-1.8-.5,15,15,0,0,0-2-.2Z"/><path class="cls-3" d="M322.1,16.2l-2.1,6h-2.4l7.2-19.5c.4-1,1-1.6,1.8-1.6a1.88,1.88,0,0,1,1.8,1.6l7.1,19.5H333l-2.1-6Zm4.4-12.4-3.8,10.6h7.6L326.5,3.8Z"/><path class="cls-3" d="M341.2,13.7v8.5h-2.3V1.6a42.62,42.62,0,0,1,6.4-.5,11.48,11.48,0,0,1,1.9.1,8.94,8.94,0,0,1,3.2.7,5.67,5.67,0,0,1,1.3.8,5.24,5.24,0,0,1,1,1.1,7.38,7.38,0,0,1,.8,3.6,6.55,6.55,0,0,1-1.4,4.5,4.18,4.18,0,0,1-1.7,1.1,8.3,8.3,0,0,1-2.1.6,19.66,19.66,0,0,1-2.6.2c-1.3,0-2.7,0-4.5-.1Zm0-10.4v8.5c1.2.1,2.5.2,4.1.2a10.63,10.63,0,0,0,3.6-.5,3.17,3.17,0,0,0,1.6-1.4,4.82,4.82,0,0,0,.5-2.6,4,4,0,0,0-1.3-3.4c-.9-.7-2.3-1-4.4-1a19.1,19.1,0,0,0-4.1.2Z"/><path class="cls-3" d="M359.6,22.2h-2.3V1.3h2.3Z"/><path class="cls-3" d="M370.1,7.8h-1.2a5.85,5.85,0,0,0-1.3.2,2.7,2.7,0,0,0-1.1.5,1.65,1.65,0,0,0-.7,1.6,4.25,4.25,0,0,0,.2,1.1.76.76,0,0,0,.2.4l.2.2.2.2c.1.1.2.1.3.2l.4.2a1.69,1.69,0,0,1,.5.2l.5.2.6.2.7.2a9.29,9.29,0,0,0,1.3.4c.4.1.7.3,1.1.4a3.6,3.6,0,0,1,.9.5,5.31,5.31,0,0,1,1.3,1.3,4.48,4.48,0,0,1,.4,2,4.33,4.33,0,0,1-1.1,3.1,5.67,5.67,0,0,1-1.3.8,9,9,0,0,1-3.6.6,28.44,28.44,0,0,1-5.1-.5l.2-1.7a33.21,33.21,0,0,0,4.1.4,14.23,14.23,0,0,0,2.6-.2,2.26,2.26,0,0,0,2-2.3,2.2,2.2,0,0,0-.1-.8c-.1-.2-.1-.4-.2-.6a1.76,1.76,0,0,0-.4-.5c-.2-.2-.4-.3-.5-.4a2.39,2.39,0,0,0-.7-.3,6.89,6.89,0,0,1-.8-.3,4.05,4.05,0,0,0-1-.3.35.35,0,0,1-.2-.1,12.78,12.78,0,0,1-2.4-.8,4.56,4.56,0,0,1-2.2-1.8,4.23,4.23,0,0,1-.5-2,3.66,3.66,0,0,1,1-2.9,3.6,3.6,0,0,1,1.2-.8,8.19,8.19,0,0,1,3.3-.5,30.52,30.52,0,0,1,5.2.5l-.2,1.7c-1.3-.1-2.6-.3-3.8-.3Z"/><path class="cls-3" d="M399.4,13.1h-3.8V11.3h6.1V19a3.42,3.42,0,0,1-.4,1.8,2.71,2.71,0,0,1-1.1,1,4.94,4.94,0,0,1-1.7.5c-.3,0-.6.1-1.1.1H395c-2.9,0-4.9-.6-6.1-1.9a7.41,7.41,0,0,1-1.8-3.4,25.76,25.76,0,0,1-.5-5.3,28.12,28.12,0,0,1,.1-3,11.74,11.74,0,0,1,1.1-4.4,5.71,5.71,0,0,1,2.6-2.5,11.51,11.51,0,0,1,4.6-.8,36.68,36.68,0,0,1,6.1.5l-.2,1.8a43.21,43.21,0,0,0-5-.3c-2.3,0-4,.4-5.1,1.3a5.15,5.15,0,0,0-1.6,3.2,23.13,23.13,0,0,0-.2,4.2,18.44,18.44,0,0,0,.4,4.7,4.65,4.65,0,0,0,1.9,3,8.27,8.27,0,0,0,4.6,1,5.48,5.48,0,0,0,2.8-.5,1.46,1.46,0,0,0,.6-.9,4.12,4.12,0,0,0,.1-1.2V13.1Z"/><path class="cls-3" d="M412.6,22.4a14.87,14.87,0,0,1-3.3-.4,3.93,3.93,0,0,1-2.1-1.4,5.32,5.32,0,0,1-1.2-2.5,19.25,19.25,0,0,1-.4-3.8,13.83,13.83,0,0,1,.4-3.8A6.47,6.47,0,0,1,407.2,8a4.87,4.87,0,0,1,2.1-1.4,10.64,10.64,0,0,1,3.3-.4,10.42,10.42,0,0,1,3.3.5A4.58,4.58,0,0,1,418,8.1a6.47,6.47,0,0,1,1.2,2.5,19.25,19.25,0,0,1,.4,3.8,13.83,13.83,0,0,1-.4,3.8,5.32,5.32,0,0,1-1.2,2.5,4.53,4.53,0,0,1-2.1,1.5,11,11,0,0,1-3.3.2Zm0-1.8a6,6,0,0,0,2.9-.6,3.18,3.18,0,0,0,1.5-2,12.46,12.46,0,0,0,.5-3.8,11.92,11.92,0,0,0-.6-4.3,3.35,3.35,0,0,0-1.5-1.6,6.49,6.49,0,0,0-2.7-.5,9.2,9.2,0,0,0-1.9.2,2.62,2.62,0,0,0-1.3.6,3.15,3.15,0,0,0-1.2,1.9,15.59,15.59,0,0,0-.4,3.6,12.16,12.16,0,0,0,.6,4.4,2.73,2.73,0,0,0,.9,1.2,3,3,0,0,0,1.4.6,8.42,8.42,0,0,0,1.8.3Z"/><path class="cls-3" d="M434.6,6.2h2.2l-5.7,14.6a6.35,6.35,0,0,1-.7,1.2,1.45,1.45,0,0,1-2,0,4.2,4.2,0,0,1-.7-1.2L422.1,6.2h2.3l5.1,13.6,5.1-13.6Z"/><path class="cls-3" d="M445.8,22.4a6.53,6.53,0,0,1-4.6-1.5,5.67,5.67,0,0,1-1.2-1.8,13.55,13.55,0,0,1-.8-4.9,13.83,13.83,0,0,1,.4-3.8,6.47,6.47,0,0,1,1.2-2.5,4.53,4.53,0,0,1,2.1-1.5,10.42,10.42,0,0,1,3.3-.5,7.12,7.12,0,0,1,4.7,1.3,4.43,4.43,0,0,1,1.2,1.5,10.66,10.66,0,0,1,.7,1.9,9.37,9.37,0,0,1,.2,2.5v1.5c-.9.2-2.1.3-3.8.5s-3,.2-4.1.3l-3.8.2a7.72,7.72,0,0,0,.2,1.5,4.1,4.1,0,0,0,1,2.2,4.17,4.17,0,0,0,1.6.9,8.26,8.26,0,0,0,2.4.3,44.17,44.17,0,0,0,5.6-.5l.2,1.8c-1.2.2-2.2.3-3.2.4a15.7,15.7,0,0,1-3.3.2ZM441.3,14l4.2-.2c1.8-.1,3.6-.2,5.3-.4V12.3a4.4,4.4,0,0,0-1-3.2,4.59,4.59,0,0,0-3.6-1.2,4.77,4.77,0,0,0-3.4,1,2.73,2.73,0,0,0-.9,1.2,4.71,4.71,0,0,0-.4,1.7,11.8,11.8,0,0,0-.2,2.2Z"/><path class="cls-3" d="M459.2,11.1V22.2H457V10a22.62,22.62,0,0,1,.1-2.7,13.31,13.31,0,0,1,6-1.3,7.57,7.57,0,0,1,1.5.1l-.2,1.8c-.3,0-.8-.1-1.3-.1a15,15,0,0,0-2,.2,7.76,7.76,0,0,0-1.8.5,20.92,20.92,0,0,0-.1,2.6Z"/><path class="cls-3" d="M469.9,11.1v11h-2.2V10a24.37,24.37,0,0,1,.1-2.7,18.65,18.65,0,0,1,3.3-1,23.37,23.37,0,0,1,3.9-.4c2.2,0,3.8.5,4.6,1.3a5.5,5.5,0,0,1,.7.9,3.58,3.58,0,0,1,.4,1.1,7.38,7.38,0,0,1,.2,1.2V22.1h-2.2V10.9a3,3,0,0,0-.5-1.8,2.43,2.43,0,0,0-1.4-1,8.8,8.8,0,0,0-2.6-.3,19.53,19.53,0,0,0-2.3.2,14.33,14.33,0,0,0-2,.5,11.27,11.27,0,0,1,0,2.6Z"/><path class="cls-3" d="M485.9,8.3l-.2-1.7a36.63,36.63,0,0,1,5.9-.6,9,9,0,0,1,3.6.6A3.35,3.35,0,0,1,497,8.1a6.74,6.74,0,0,1,.7,2.8v7.5a24.37,24.37,0,0,1-.1,2.7,16,16,0,0,1-6.7,1.3,8.12,8.12,0,0,1-4.7-1.1,4.28,4.28,0,0,1-1.5-3.7,5.11,5.11,0,0,1,1-3.4,4.79,4.79,0,0,1,3-1.5,62.08,62.08,0,0,1,6.8-.5v-.7a7.18,7.18,0,0,0-.2-1.7,2.59,2.59,0,0,0-.7-1.1,4,4,0,0,0-1.3-.7,11.8,11.8,0,0,0-2.2-.2,40.43,40.43,0,0,0-5.2.5Zm1,9.3a2.93,2.93,0,0,0,.6,2.1,2.18,2.18,0,0,0,.8.5,9.82,9.82,0,0,0,2.8.4,11.08,11.08,0,0,0,4.3-.7c0-.7.1-1.5.1-2.5V13.9a52.22,52.22,0,0,0-6,.4,3.44,3.44,0,0,0-2,1,3.34,3.34,0,0,0-.6,2.3Z"/><path class="cls-3" d="M504.5,11.1v11h-2.2V10a24.37,24.37,0,0,1,.1-2.7,18.65,18.65,0,0,1,3.3-1,23.37,23.37,0,0,1,3.9-.4c2.2,0,3.8.5,4.6,1.3a5.5,5.5,0,0,1,.7.9,3.58,3.58,0,0,1,.4,1.1,7.38,7.38,0,0,1,.2,1.2V22.1h-2.2V10.9a3,3,0,0,0-.5-1.8,2.43,2.43,0,0,0-1.4-1,8.8,8.8,0,0,0-2.6-.3,19.53,19.53,0,0,0-2.3.2,14.33,14.33,0,0,0-2,.5v2.6Z"/><path class="cls-3" d="M530.1,20.2l.2,1.8a21.76,21.76,0,0,1-4.2.5q-3.3,0-4.8-1.8a8,8,0,0,1-1.3-2.8,19,19,0,0,1-.3-3.7,13.42,13.42,0,0,1,.1-2.1,8.85,8.85,0,0,1,.8-3.3,4.51,4.51,0,0,1,2.1-2,8.78,8.78,0,0,1,3.9-.7,14.87,14.87,0,0,1,3.6.5L530,8.3a13.9,13.9,0,0,0-2.7-.3,11.19,11.19,0,0,0-2.9.3,3.37,3.37,0,0,0-1.7,1.1,3.56,3.56,0,0,0-.6,1.5c0,.2-.1.5-.1,1a15.52,15.52,0,0,0-.1,2.3,14.83,14.83,0,0,0,.3,3.6,3.22,3.22,0,0,0,1.7,2.2,8.16,8.16,0,0,0,3.5.6c.7-.1,1.6-.2,2.7-.4Z"/><path class="cls-3" d="M539.5,22.4a6.53,6.53,0,0,1-4.6-1.5,5.67,5.67,0,0,1-1.2-1.8,13.55,13.55,0,0,1-.8-4.9,13.83,13.83,0,0,1,.4-3.8,6.47,6.47,0,0,1,1.2-2.5,4.53,4.53,0,0,1,2.1-1.5,10.42,10.42,0,0,1,3.3-.5c2.1,0,3.7.4,4.7,1.3a4.43,4.43,0,0,1,1.2,1.5,10.66,10.66,0,0,1,.7,1.9,9.37,9.37,0,0,1,.2,2.5v1.5c-.9.2-2.2.3-3.8.5s-3,.2-4.1.3l-3.8.2a7.72,7.72,0,0,0,.2,1.5,4.1,4.1,0,0,0,1,2.2,4.17,4.17,0,0,0,1.6.9,8.26,8.26,0,0,0,2.4.3,44.17,44.17,0,0,0,5.6-.5l.2,1.8c-1.2.2-2.2.3-3.2.4a15.21,15.21,0,0,1-3.3.2ZM535,14l4.2-.2c1.8-.1,3.6-.2,5.3-.4V12.3a4.4,4.4,0,0,0-1-3.2,4.59,4.59,0,0,0-3.6-1.2,4.77,4.77,0,0,0-3.4,1,2.73,2.73,0,0,0-.9,1.2,4.71,4.71,0,0,0-.4,1.7A11.8,11.8,0,0,0,535,14Z"/></g></g></svg>